<svg xmlns="http://www.w3.org/2000/svg" xmlns:xlink="http://www.w3.org/1999/xlink" width="600" zoomAndPan="magnify" viewBox="0 0 450 299.999988" height="400" preserveAspectRatio="xMidYMid meet" version="1.0"><defs><g/><clipPath id="b931928e55"><path d="M 112.382812 95.328125 L 337.972656 95.328125 L 337.972656 284.3125 L 112.382812 284.3125 Z M 112.382812 95.328125 " clip-rule="nonzero"/></clipPath><clipPath id="26f3ee837a"><path d="M 232 159 L 239 159 L 239 193.421875 L 232 193.421875 Z M 232 159 " clip-rule="nonzero"/></clipPath><clipPath id="7fd68b7663"><path d="M 243 139 L 251 139 L 251 193.421875 L 243 193.421875 Z M 243 139 " clip-rule="nonzero"/></clipPath><clipPath id="6c5f70bbc4"><path d="M 254 159 L 261.144531 159 L 261.144531 193.421875 L 254 193.421875 Z M 254 159 " clip-rule="nonzero"/></clipPath><clipPath id="01d32bdc54"><path d="M 220 155 L 228 155 L 228 193.421875 L 220 193.421875 Z M 220 155 " clip-rule="nonzero"/></clipPath><clipPath id="26d016452e"><path d="M 187 179 L 194 179 L 194 193.21875 L 187 193.21875 Z M 187 179 " clip-rule="nonzero"/></clipPath><clipPath id="7527da6ba1"><path d="M 198 155 L 206 155 L 206 193.21875 L 198 193.21875 Z M 198 155 " clip-rule="nonzero"/></clipPath><clipPath id="4e2f695759"><path d="M 210 139 L 217 139 L 217 193.421875 L 210 193.421875 Z M 210 139 " clip-rule="nonzero"/></clipPath></defs><rect x="-45" width="540" fill="#ffffff" y="-29.999999" height="359.999986" fill-opacity="1"/><rect x="-45" width="540" fill="#3066bd" y="-29.999999" height="359.999986" fill-opacity="1"/><g fill="#f5f7f6" fill-opacity="1"><g transform="translate(147.792285, 70.499994)"><g><path d="M 4.3125 -36.328125 L 20.8125 -36.328125 C 24.75 -36.328125 28.226562 -35.570312 31.25 -34.0625 C 34.28125 -32.5625 36.632812 -30.441406 38.3125 -27.703125 C 40 -24.972656 40.84375 -21.789062 40.84375 -18.15625 C 40.84375 -14.53125 40 -11.347656 38.3125 -8.609375 C 36.632812 -5.878906 34.28125 -3.757812 31.25 -2.25 C 28.226562 -0.75 24.75 0 20.8125 0 L 4.3125 0 Z M 20.390625 -6.90625 C 24.023438 -6.90625 26.921875 -7.914062 29.078125 -9.9375 C 31.242188 -11.957031 32.328125 -14.695312 32.328125 -18.15625 C 32.328125 -21.613281 31.242188 -24.351562 29.078125 -26.375 C 26.921875 -28.40625 24.023438 -29.421875 20.390625 -29.421875 L 12.71875 -29.421875 L 12.71875 -6.90625 Z M 20.390625 -6.90625 "/></g></g></g><g fill="#f5f7f6" fill-opacity="1"><g transform="translate(190.644283, 70.499994)"><g><path d="M 28.234375 -7.78125 L 11.359375 -7.78125 L 8.140625 0 L -0.46875 0 L 15.71875 -36.328125 L 24.03125 -36.328125 L 40.265625 0 L 31.453125 0 Z M 25.578125 -14.171875 L 19.828125 -28.078125 L 14.0625 -14.171875 Z M 25.578125 -14.171875 "/></g></g></g><g fill="#f5f7f6" fill-opacity="1"><g transform="translate(230.383545, 70.499994)"><g><path d="M 11.828125 -29.46875 L 0.203125 -29.46875 L 0.203125 -36.328125 L 31.859375 -36.328125 L 31.859375 -29.46875 L 20.234375 -29.46875 L 20.234375 0 L 11.828125 0 Z M 11.828125 -29.46875 "/></g></g></g><g fill="#f5f7f6" fill-opacity="1"><g transform="translate(262.444726, 70.499994)"><g><path d="M 28.234375 -7.78125 L 11.359375 -7.78125 L 8.140625 0 L -0.46875 0 L 15.71875 -36.328125 L 24.03125 -36.328125 L 40.265625 0 L 31.453125 0 Z M 25.578125 -14.171875 L 19.828125 -28.078125 L 14.0625 -14.171875 Z M 25.578125 -14.171875 "/></g></g></g><path fill="#f5f7f6" d="M 292.046875 158.011719 L 227.210938 122.683594 C 225.832031 121.929688 224.164062 121.929688 222.785156 122.683594 L 157.953125 158.011719 C 156.921875 158.570312 156.667969 159.941406 157.429688 160.835938 L 184.355469 192.464844 C 185.234375 193.496094 186.519531 194.09375 187.875 194.09375 L 262.125 194.09375 C 263.480469 194.09375 264.765625 193.496094 265.644531 192.464844 L 292.570312 160.835938 C 293.332031 159.941406 293.078125 158.570312 292.046875 158.011719 Z M 292.046875 158.011719 " fill-opacity="1" fill-rule="nonzero"/><g clip-path="url(#b931928e55)"><path fill="#f5f7f6" d="M 337.605469 148.238281 C 337.605469 147.625 337.257812 147.042969 336.667969 146.769531 L 225.675781 95.519531 C 225.246094 95.320312 224.75 95.320312 224.320312 95.519531 L 113.328125 146.769531 C 112.742188 147.042969 112.394531 147.625 112.394531 148.238281 C 112.394531 148.238281 112.390625 148.238281 112.390625 148.238281 L 112.390625 180.582031 C 112.390625 180.738281 112.414062 180.894531 112.457031 181.042969 L 140.804688 275.972656 C 140.808594 275.980469 140.8125 275.988281 140.816406 275.992188 C 141.027344 276.648438 141.632812 277.128906 142.351562 277.128906 L 178.632812 277.128906 L 178.632812 281.292969 L 172.585938 281.292969 C 171.691406 281.292969 170.964844 282.019531 170.964844 282.910156 C 170.964844 283.804688 171.691406 284.53125 172.585938 284.53125 L 277.414062 284.53125 C 278.304688 284.53125 279.03125 283.804688 279.03125 282.910156 C 279.03125 282.019531 278.304688 281.292969 277.414062 281.292969 L 271.363281 281.292969 L 271.363281 277.128906 L 307.46875 277.128906 C 308.199219 277.128906 308.804688 276.644531 309.007812 275.984375 C 309.015625 275.984375 309.015625 275.980469 309.019531 275.980469 L 337.539062 181.046875 C 337.585938 180.894531 337.609375 180.738281 337.609375 180.582031 L 337.605469 148.238281 C 337.609375 148.238281 337.605469 148.238281 337.605469 148.238281 Z M 140.730469 230.496094 L 140.730469 264.4375 L 115.621094 180.34375 L 115.621094 157.851562 L 140.75 230.316406 C 140.742188 230.375 140.730469 230.429688 140.730469 230.496094 Z M 180.832031 273.894531 L 143.972656 273.894531 L 143.972656 232.113281 L 177.917969 232.113281 L 175.933594 243.550781 C 175.851562 244.023438 175.984375 244.503906 176.289062 244.867188 C 176.597656 245.234375 177.050781 245.445312 177.527344 245.445312 L 180.832031 245.445312 Z M 258.414062 242.210938 L 179.453125 242.210938 L 181.207031 232.113281 L 268.796875 232.113281 L 270.550781 242.210938 Z M 265.925781 245.445312 L 265.925781 253.160156 C 265.746094 253.113281 265.558594 253.078125 265.367188 253.078125 C 263.21875 253.078125 261.304688 254.046875 260.027344 255.574219 L 260.027344 245.445312 Z M 228.082031 252.195312 C 225.800781 252.902344 223.664062 253.9375 221.722656 255.242188 C 221.46875 255.414062 221.320312 255.703125 221.320312 256.007812 L 221.320312 267.257812 C 221.320312 268.136719 220.664062 268.917969 219.789062 268.964844 C 218.855469 269.015625 218.082031 268.269531 218.082031 267.34375 L 218.082031 259.382812 C 218.082031 258.960938 217.558594 258.757812 217.277344 259.066406 C 215.253906 261.289062 213.632812 263.894531 212.53125 266.757812 L 212.53125 245.445312 L 237.464844 245.445312 L 237.464844 251.519531 C 236.992188 251.25 236.453125 251.09375 235.871094 251.09375 L 235.332031 251.09375 C 234.3125 251.09375 233.308594 251.15625 232.316406 251.28125 C 232.085938 251.3125 231.910156 251.507812 231.910156 251.746094 L 231.910156 267.261719 C 231.910156 268.140625 231.253906 268.921875 230.378906 268.96875 C 229.445312 269.019531 228.671875 268.273438 228.671875 267.347656 L 228.671875 252.636719 C 228.679688 252.328125 228.378906 252.101562 228.082031 252.195312 Z M 189.960938 245.445312 L 189.960938 253.160156 C 189.78125 253.113281 189.59375 253.078125 189.398438 253.078125 C 187.253906 253.078125 185.339844 254.046875 184.0625 255.574219 L 184.0625 245.445312 Z M 192.160156 281.292969 L 181.871094 281.292969 L 181.871094 277.128906 L 191.929688 277.128906 C 192.058594 277.128906 192.160156 277.230469 192.160156 277.363281 Z M 209.292969 273.933594 C 207.617188 274.179688 206.332031 275.621094 206.332031 277.363281 L 206.332031 281.292969 L 195.398438 281.292969 L 195.398438 277.363281 C 195.398438 275.894531 194.488281 274.648438 193.203125 274.136719 L 193.203125 245.445312 L 209.296875 245.445312 L 209.296875 273.933594 Z M 240.425781 281.292969 L 209.570312 281.292969 L 209.570312 277.363281 C 209.570312 277.230469 209.671875 277.128906 209.800781 277.128906 L 240.1875 277.128906 C 240.320312 277.128906 240.421875 277.230469 240.421875 277.363281 L 240.421875 281.292969 Z M 256.796875 274.136719 C 255.511719 274.648438 254.597656 275.898438 254.597656 277.363281 L 254.597656 281.292969 L 243.664062 281.292969 L 243.664062 277.363281 C 243.664062 275.621094 242.371094 274.179688 240.703125 273.933594 L 240.703125 245.445312 L 256.796875 245.445312 Z M 268.125 281.292969 L 257.832031 281.292969 L 257.832031 277.363281 C 257.832031 277.230469 257.933594 277.128906 258.0625 277.128906 L 268.121094 277.128906 L 268.121094 281.292969 Z M 305.851562 273.894531 L 269.164062 273.894531 L 269.164062 245.445312 L 272.464844 245.445312 C 272.941406 245.445312 273.394531 245.234375 273.703125 244.867188 C 274.007812 244.503906 274.144531 244.023438 274.058594 243.550781 L 272.078125 232.113281 L 305.847656 232.113281 L 305.847656 273.894531 Z M 306.316406 228.875 L 264.597656 228.875 L 264.597656 201.160156 C 264.597656 200.269531 263.871094 199.542969 262.980469 199.542969 C 262.085938 199.542969 261.359375 200.269531 261.359375 201.160156 L 261.359375 228.875 L 188.632812 228.875 L 188.632812 201.160156 C 188.632812 200.269531 187.90625 199.542969 187.015625 199.542969 C 186.121094 199.542969 185.394531 200.269531 185.394531 201.160156 L 185.394531 228.875 L 143.675781 228.875 L 136.730469 208.835938 L 178.019531 195.683594 C 178.871094 195.410156 179.339844 194.5 179.070312 193.648438 C 178.796875 192.800781 177.886719 192.328125 177.035156 192.601562 L 135.664062 205.777344 L 123.1875 169.785156 L 150.9375 164.199219 C 151.816406 164.023438 152.378906 163.167969 152.203125 162.292969 C 152.027344 161.421875 151.171875 160.851562 150.296875 161.027344 L 122.121094 166.703125 L 116.015625 149.09375 L 139.824219 138.101562 L 153.675781 153.457031 C 153.992188 153.8125 154.433594 153.992188 154.875 153.992188 C 155.265625 153.992188 155.648438 153.855469 155.957031 153.578125 C 156.625 152.980469 156.675781 151.953125 156.074219 151.292969 L 142.898438 136.6875 L 204.707031 108.140625 L 217.332031 119.539062 C 217.644531 119.816406 218.03125 119.953125 218.414062 119.953125 C 218.859375 119.953125 219.300781 119.773438 219.617188 119.421875 C 220.21875 118.757812 220.164062 117.734375 219.503906 117.136719 L 207.898438 106.664062 L 224.996094 98.769531 L 242.046875 106.644531 L 230.484375 117.082031 C 229.824219 117.683594 229.769531 118.707031 230.371094 119.367188 C 230.691406 119.722656 231.128906 119.898438 231.574219 119.898438 C 231.960938 119.898438 232.351562 119.761719 232.65625 119.484375 L 245.242188 108.121094 L 307.058594 136.664062 L 293.917969 151.230469 C 293.324219 151.898438 293.375 152.917969 294.035156 153.515625 C 294.34375 153.792969 294.734375 153.933594 295.117188 153.933594 C 295.5625 153.933594 296 153.753906 296.320312 153.394531 L 310.132812 138.082031 L 333.972656 149.09375 L 327.886719 166.652344 L 299.691406 160.972656 C 298.8125 160.796875 297.960938 161.359375 297.785156 162.238281 C 297.609375 163.117188 298.179688 163.96875 299.050781 164.144531 L 326.820312 169.734375 L 314.339844 205.726562 L 272.957031 192.542969 C 272.105469 192.273438 271.191406 192.742188 270.921875 193.59375 C 270.648438 194.445312 271.117188 195.355469 271.96875 195.628906 L 313.277344 208.785156 Z M 334.371094 180.34375 L 309.089844 264.5 L 309.089844 230.769531 L 334.371094 157.851562 Z M 334.371094 180.34375 " fill-opacity="1" fill-rule="nonzero"/></g><path fill="#f5f7f6" d="M 199.210938 255.390625 L 203.34375 255.390625 C 204.238281 255.390625 204.960938 254.664062 204.960938 253.769531 C 204.960938 252.878906 204.238281 252.152344 203.34375 252.152344 L 199.210938 252.152344 C 198.316406 252.152344 197.589844 252.878906 197.589844 253.769531 C 197.589844 254.664062 198.316406 255.390625 199.210938 255.390625 Z M 199.210938 255.390625 " fill-opacity="1" fill-rule="nonzero"/><path fill="#f5f7f6" d="M 199.210938 265.914062 L 203.34375 265.914062 C 204.238281 265.914062 204.960938 265.191406 204.960938 264.296875 C 204.960938 263.40625 204.238281 262.679688 203.34375 262.679688 L 199.210938 262.679688 C 198.316406 262.679688 197.589844 263.40625 197.589844 264.296875 C 197.589844 265.191406 198.316406 265.914062 199.210938 265.914062 Z M 199.210938 265.914062 " fill-opacity="1" fill-rule="nonzero"/><path fill="#f5f7f6" d="M 246.683594 255.390625 L 250.816406 255.390625 C 251.710938 255.390625 252.433594 254.664062 252.433594 253.769531 C 252.433594 252.878906 251.710938 252.152344 250.816406 252.152344 L 246.683594 252.152344 C 245.789062 252.152344 245.0625 252.878906 245.0625 253.769531 C 245.0625 254.664062 245.785156 255.390625 246.683594 255.390625 Z M 246.683594 255.390625 " fill-opacity="1" fill-rule="nonzero"/><path fill="#f5f7f6" d="M 246.683594 265.914062 L 250.816406 265.914062 C 251.710938 265.914062 252.433594 265.191406 252.433594 264.296875 C 252.433594 263.40625 251.710938 262.679688 250.816406 262.679688 L 246.683594 262.679688 C 245.789062 262.679688 245.0625 263.40625 245.0625 264.296875 C 245.0625 265.191406 245.785156 265.914062 246.683594 265.914062 Z M 246.683594 265.914062 " fill-opacity="1" fill-rule="nonzero"/><path fill="#f5f7f6" d="M 174.234375 252.152344 L 150.660156 252.152344 C 149.765625 252.152344 149.039062 252.878906 149.039062 253.769531 C 149.039062 254.664062 149.765625 255.390625 150.660156 255.390625 L 174.234375 255.390625 C 175.128906 255.390625 175.855469 254.664062 175.855469 253.769531 C 175.855469 252.878906 175.132812 252.152344 174.234375 252.152344 Z M 174.234375 252.152344 " fill-opacity="1" fill-rule="nonzero"/><path fill="#f5f7f6" d="M 174.234375 262.679688 L 150.660156 262.679688 C 149.765625 262.679688 149.039062 263.40625 149.039062 264.296875 C 149.039062 265.191406 149.765625 265.914062 150.660156 265.914062 L 174.234375 265.914062 C 175.128906 265.914062 175.855469 265.191406 175.855469 264.296875 C 175.855469 263.40625 175.132812 262.679688 174.234375 262.679688 Z M 174.234375 262.679688 " fill-opacity="1" fill-rule="nonzero"/><path fill="#f5f7f6" d="M 275.757812 255.390625 L 299.335938 255.390625 C 300.226562 255.390625 300.953125 254.664062 300.953125 253.769531 C 300.953125 252.878906 300.226562 252.152344 299.335938 252.152344 L 275.757812 252.152344 C 274.863281 252.152344 274.140625 252.878906 274.140625 253.769531 C 274.140625 254.664062 274.859375 255.390625 275.757812 255.390625 Z M 275.757812 255.390625 " fill-opacity="1" fill-rule="nonzero"/><path fill="#f5f7f6" d="M 286.199219 246.375 L 299.335938 246.375 C 300.226562 246.375 300.953125 245.648438 300.953125 244.757812 C 300.953125 243.863281 300.226562 243.140625 299.335938 243.140625 L 286.199219 243.140625 C 285.308594 243.140625 284.582031 243.863281 284.582031 244.757812 C 284.582031 245.648438 285.308594 246.375 286.199219 246.375 Z M 286.199219 246.375 " fill-opacity="1" fill-rule="nonzero"/><path fill="#f5f7f6" d="M 150.417969 246.375 L 163.554688 246.375 C 164.445312 246.375 165.171875 245.648438 165.171875 244.757812 C 165.171875 243.863281 164.445312 243.140625 163.554688 243.140625 L 150.417969 243.140625 C 149.527344 243.140625 148.800781 243.863281 148.800781 244.757812 C 148.800781 245.648438 149.519531 246.375 150.417969 246.375 Z M 150.417969 246.375 " fill-opacity="1" fill-rule="nonzero"/><path fill="#f5f7f6" d="M 275.757812 265.914062 L 299.335938 265.914062 C 300.226562 265.914062 300.953125 265.191406 300.953125 264.296875 C 300.953125 263.40625 300.226562 262.679688 299.335938 262.679688 L 275.757812 262.679688 C 274.863281 262.679688 274.140625 263.40625 274.140625 264.296875 C 274.140625 265.191406 274.859375 265.914062 275.757812 265.914062 Z M 275.757812 265.914062 " fill-opacity="1" fill-rule="nonzero"/><g clip-path="url(#26f3ee837a)"><path fill="#3066bd" d="M 237.742188 159.925781 L 233.265625 159.925781 C 232.648438 159.925781 232.148438 160.425781 232.148438 161.046875 L 232.148438 192.371094 C 232.148438 192.984375 232.648438 193.488281 233.265625 193.488281 L 237.742188 193.488281 C 238.359375 193.488281 238.859375 192.984375 238.859375 192.371094 L 238.859375 161.046875 C 238.859375 160.425781 238.359375 159.925781 237.742188 159.925781 Z M 237.742188 159.925781 " fill-opacity="1" fill-rule="nonzero"/></g><g clip-path="url(#7fd68b7663)"><path fill="#3066bd" d="M 248.929688 139.789062 L 244.453125 139.789062 C 243.839844 139.789062 243.335938 140.289062 243.335938 140.90625 L 243.335938 192.371094 C 243.335938 192.984375 243.839844 193.488281 244.453125 193.488281 L 248.929688 193.488281 C 249.546875 193.488281 250.046875 192.984375 250.046875 192.371094 L 250.046875 140.90625 C 250.046875 140.289062 249.546875 139.789062 248.929688 139.789062 Z M 248.929688 139.789062 " fill-opacity="1" fill-rule="nonzero"/></g><g clip-path="url(#6c5f70bbc4)"><path fill="#3066bd" d="M 260.117188 159.925781 L 255.640625 159.925781 C 255.027344 159.925781 254.523438 160.425781 254.523438 161.046875 L 254.523438 192.371094 C 254.523438 192.984375 255.027344 193.488281 255.640625 193.488281 L 260.117188 193.488281 C 260.730469 193.488281 261.234375 192.984375 261.234375 192.371094 L 261.234375 161.046875 C 261.234375 160.425781 260.730469 159.925781 260.117188 159.925781 Z M 260.117188 159.925781 " fill-opacity="1" fill-rule="nonzero"/></g><g clip-path="url(#01d32bdc54)"><path fill="#3066bd" d="M 226.554688 155.453125 L 222.082031 155.453125 C 221.460938 155.453125 220.960938 155.953125 220.960938 156.570312 L 220.960938 192.371094 C 220.960938 192.984375 221.460938 193.488281 222.082031 193.488281 L 226.554688 193.488281 C 227.171875 193.488281 227.675781 192.984375 227.675781 192.371094 L 227.675781 156.570312 C 227.675781 155.953125 227.171875 155.453125 226.554688 155.453125 Z M 226.554688 155.453125 " fill-opacity="1" fill-rule="nonzero"/></g><g clip-path="url(#26d016452e)"><path fill="#3066bd" d="M 192.84375 179.859375 L 188.367188 179.859375 C 187.75 179.859375 187.25 180.363281 187.25 180.980469 L 187.25 192.167969 C 187.25 192.78125 187.75 193.285156 188.367188 193.285156 L 192.84375 193.285156 C 193.460938 193.285156 193.960938 192.78125 193.960938 192.167969 L 193.960938 180.980469 C 193.960938 180.363281 193.460938 179.859375 192.84375 179.859375 Z M 192.84375 179.859375 " fill-opacity="1" fill-rule="nonzero"/></g><g clip-path="url(#7527da6ba1)"><path fill="#3066bd" d="M 204.03125 155.25 L 199.554688 155.25 C 198.9375 155.25 198.4375 155.75 198.4375 156.367188 L 198.4375 192.167969 C 198.4375 192.78125 198.9375 193.285156 199.554688 193.285156 L 204.03125 193.285156 C 204.648438 193.285156 205.148438 192.78125 205.148438 192.167969 L 205.148438 156.367188 C 205.148438 155.75 204.648438 155.25 204.03125 155.25 Z M 204.03125 155.25 " fill-opacity="1" fill-rule="nonzero"/></g><g clip-path="url(#4e2f695759)"><path fill="#3066bd" d="M 215.722656 139.789062 L 211.25 139.789062 C 210.632812 139.789062 210.128906 140.289062 210.128906 140.90625 L 210.128906 192.371094 C 210.128906 192.984375 210.632812 193.488281 211.25 193.488281 L 215.722656 193.488281 C 216.339844 193.488281 216.84375 192.984375 216.84375 192.371094 L 216.84375 140.90625 C 216.84375 140.289062 216.339844 139.789062 215.722656 139.789062 Z M 215.722656 139.789062 " fill-opacity="1" fill-rule="nonzero"/></g></svg>