<svg xmlns="http://www.w3.org/2000/svg" xmlns:xlink="http://www.w3.org/1999/xlink" width="600" zoomAndPan="magnify" viewBox="0 0 450 299.999988" height="400" preserveAspectRatio="xMidYMid meet" version="1.0"><defs><g/><clipPath id="edf0244f2f"><path d="M 135.28125 107.007812 L 314.53125 107.007812 L 314.53125 286.257812 L 135.28125 286.257812 Z M 135.28125 107.007812 " clip-rule="nonzero"/></clipPath></defs><rect x="-45" width="540" fill="#ffffff" y="-29.999999" height="359.999986" fill-opacity="1"/><rect x="-45" width="540" fill="#3066bd" y="-29.999999" height="359.999986" fill-opacity="1"/><g clip-path="url(#edf0244f2f)"><path fill="#ebebeb" d="M 301.277344 196.945312 C 302.679688 196.945312 303.820312 195.808594 303.820312 194.402344 L 303.820312 186.058594 L 307.566406 186.058594 C 311.511719 186.058594 314.71875 182.851562 314.71875 178.90625 L 314.71875 169.933594 C 314.71875 165.992188 311.511719 162.785156 307.566406 162.785156 L 295.328125 162.785156 L 227.539062 133.40625 L 227.539062 128.148438 L 250.421875 128.148438 C 251.824219 128.148438 252.964844 127.011719 252.964844 125.605469 L 252.964844 109.550781 C 252.964844 108.148438 251.824219 107.007812 250.421875 107.007812 L 224.996094 107.007812 C 224.324219 107.007812 223.675781 107.277344 223.199219 107.753906 C 222.722656 108.230469 222.457031 108.878906 222.457031 109.550781 L 222.457031 133.40625 L 154.667969 162.785156 L 142.429688 162.785156 C 138.488281 162.785156 135.28125 165.992188 135.28125 169.933594 L 135.28125 178.90625 C 135.28125 182.851562 138.488281 186.058594 142.429688 186.058594 L 146.175781 186.058594 L 146.175781 194.402344 C 146.175781 195.808594 147.316406 196.945312 148.71875 196.945312 L 152.117188 196.945312 L 152.117188 252.160156 L 148.71875 252.160156 C 147.316406 252.160156 146.175781 253.300781 146.175781 254.703125 L 146.175781 263.050781 L 143.136719 263.050781 C 138.804688 263.050781 135.28125 266.574219 135.28125 270.910156 L 135.28125 278.589844 C 135.28125 282.921875 138.804688 286.445312 143.136719 286.445312 L 306.859375 286.445312 C 311.191406 286.445312 314.71875 282.921875 314.71875 278.589844 L 314.71875 270.910156 C 314.71875 266.574219 311.191406 263.050781 306.859375 263.050781 L 303.820312 263.050781 L 303.820312 254.703125 C 303.820312 253.300781 302.679688 252.160156 301.277344 252.160156 L 297.878906 252.160156 L 297.878906 196.945312 Z M 298.734375 191.859375 L 278.199219 191.859375 L 278.199219 186.058594 L 298.734375 186.058594 Z M 275.65625 252.160156 C 274.25 252.160156 273.113281 253.300781 273.113281 254.703125 L 273.113281 263.050781 L 261.507812 263.050781 L 261.507812 254.703125 C 261.507812 253.300781 260.367188 252.160156 258.964844 252.160156 L 255.566406 252.160156 L 255.566406 196.945312 L 258.964844 196.945312 C 260.367188 196.945312 261.507812 195.808594 261.507812 194.402344 L 261.507812 186.058594 L 273.113281 186.058594 L 273.113281 194.402344 C 273.113281 195.808594 274.25 196.945312 275.65625 196.945312 L 279.054688 196.945312 L 279.054688 252.160156 Z M 174.339844 252.160156 L 170.941406 252.160156 L 170.941406 196.945312 L 174.339844 196.945312 C 175.746094 196.945312 176.882812 195.808594 176.882812 194.402344 L 176.882812 186.058594 L 188.488281 186.058594 L 188.488281 194.402344 C 188.488281 195.808594 189.628906 196.945312 191.03125 196.945312 L 194.429688 196.945312 L 194.429688 252.160156 L 191.03125 252.160156 C 189.628906 252.160156 188.488281 253.300781 188.488281 254.703125 L 188.488281 263.050781 L 176.882812 263.050781 L 176.882812 254.703125 C 176.882812 253.300781 175.746094 252.160156 174.339844 252.160156 Z M 199.515625 252.160156 L 199.515625 196.945312 L 208.167969 196.945312 L 208.167969 252.160156 Z M 193.574219 191.859375 L 193.574219 186.058594 L 214.109375 186.058594 L 214.109375 191.859375 Z M 193.574219 257.246094 L 214.109375 257.246094 L 214.109375 263.050781 L 193.574219 263.050781 Z M 216.652344 252.160156 L 213.253906 252.160156 L 213.253906 196.945312 L 216.652344 196.945312 C 218.058594 196.945312 219.195312 195.808594 219.195312 194.402344 L 219.195312 186.058594 L 230.800781 186.058594 L 230.800781 194.402344 C 230.800781 195.808594 231.9375 196.945312 233.34375 196.945312 L 236.742188 196.945312 L 236.742188 252.160156 L 233.34375 252.160156 C 231.9375 252.160156 230.800781 253.300781 230.800781 254.703125 L 230.800781 263.050781 L 219.195312 263.050781 L 219.195312 254.703125 C 219.195312 253.300781 218.058594 252.160156 216.652344 252.160156 Z M 241.828125 252.160156 L 241.828125 196.945312 L 250.480469 196.945312 L 250.480469 252.160156 Z M 235.886719 191.859375 L 235.886719 186.058594 L 256.421875 186.058594 L 256.421875 191.859375 Z M 235.886719 257.246094 L 256.421875 257.246094 L 256.421875 263.050781 L 235.886719 263.050781 Z M 227.539062 112.09375 L 247.878906 112.09375 L 247.878906 123.0625 L 227.539062 123.0625 Z M 225 137.847656 L 282.539062 162.785156 L 167.457031 162.785156 Z M 140.363281 178.90625 L 140.363281 169.933594 C 140.363281 168.796875 141.289062 167.871094 142.429688 167.871094 L 307.566406 167.871094 C 308.707031 167.871094 309.632812 168.796875 309.632812 169.933594 L 309.632812 178.90625 C 309.632812 180.046875 308.707031 180.972656 307.566406 180.972656 L 142.429688 180.972656 C 141.289062 180.972656 140.363281 180.046875 140.363281 178.90625 Z M 151.261719 186.058594 L 171.796875 186.058594 L 171.796875 191.859375 L 151.261719 191.859375 Z M 157.203125 196.945312 L 165.855469 196.945312 L 165.855469 252.160156 L 157.203125 252.160156 Z M 151.261719 257.246094 L 171.796875 257.246094 L 171.796875 263.050781 L 151.261719 263.050781 Z M 309.632812 270.910156 L 309.632812 278.589844 C 309.632812 280.117188 308.386719 281.363281 306.859375 281.363281 L 143.136719 281.363281 C 141.609375 281.363281 140.363281 280.117188 140.363281 278.589844 L 140.363281 270.910156 C 140.363281 269.378906 141.609375 268.136719 143.136719 268.136719 L 306.859375 268.136719 C 308.386719 268.136719 309.632812 269.378906 309.632812 270.910156 Z M 298.734375 263.050781 L 278.199219 263.050781 L 278.199219 257.246094 L 298.734375 257.246094 Z M 292.792969 252.160156 L 284.140625 252.160156 L 284.140625 196.945312 L 292.792969 196.945312 Z M 292.792969 252.160156 " fill-opacity="1" fill-rule="nonzero"/></g><g fill="#ebebeb" fill-opacity="1"><g transform="translate(108.09968, 70.833942)"><g><path d="M 4.3125 -36.3125 L 20.796875 -36.3125 C 24.742188 -36.3125 28.226562 -35.554688 31.25 -34.046875 C 34.28125 -32.546875 36.632812 -30.429688 38.3125 -27.703125 C 39.988281 -24.972656 40.828125 -21.789062 40.828125 -18.15625 C 40.828125 -14.519531 39.988281 -11.335938 38.3125 -8.609375 C 36.632812 -5.878906 34.28125 -3.757812 31.25 -2.25 C 28.226562 -0.75 24.742188 0 20.796875 0 L 4.3125 0 Z M 20.390625 -6.90625 C 24.015625 -6.90625 26.90625 -7.914062 29.0625 -9.9375 C 31.226562 -11.957031 32.3125 -14.695312 32.3125 -18.15625 C 32.3125 -21.613281 31.226562 -24.351562 29.0625 -26.375 C 26.90625 -28.394531 24.015625 -29.40625 20.390625 -29.40625 L 12.703125 -29.40625 L 12.703125 -6.90625 Z M 20.390625 -6.90625 "/></g></g></g><g fill="#ebebeb" fill-opacity="1"><g transform="translate(150.951205, 70.833942)"><g><path d="M 21.890625 0.625 C 18.117188 0.625 14.71875 -0.1875 11.6875 -1.8125 C 8.664062 -3.4375 6.296875 -5.675781 4.578125 -8.53125 C 2.867188 -11.382812 2.015625 -14.59375 2.015625 -18.15625 C 2.015625 -21.71875 2.867188 -24.925781 4.578125 -27.78125 C 6.296875 -30.632812 8.664062 -32.875 11.6875 -34.5 C 14.71875 -36.125 18.117188 -36.9375 21.890625 -36.9375 C 25.660156 -36.9375 29.050781 -36.125 32.0625 -34.5 C 35.070312 -32.875 37.441406 -30.632812 39.171875 -27.78125 C 40.898438 -24.925781 41.765625 -21.71875 41.765625 -18.15625 C 41.765625 -14.59375 40.898438 -11.382812 39.171875 -8.53125 C 37.441406 -5.675781 35.070312 -3.4375 32.0625 -1.8125 C 29.050781 -0.1875 25.660156 0.625 21.890625 0.625 Z M 21.890625 -6.53125 C 24.035156 -6.53125 25.972656 -7.023438 27.703125 -8.015625 C 29.429688 -9.003906 30.785156 -10.378906 31.765625 -12.140625 C 32.753906 -13.898438 33.25 -15.90625 33.25 -18.15625 C 33.25 -20.40625 32.753906 -22.410156 31.765625 -24.171875 C 30.785156 -25.929688 29.429688 -27.304688 27.703125 -28.296875 C 25.972656 -29.285156 24.035156 -29.78125 21.890625 -29.78125 C 19.742188 -29.78125 17.804688 -29.285156 16.078125 -28.296875 C 14.347656 -27.304688 12.988281 -25.929688 12 -24.171875 C 11.019531 -22.410156 10.53125 -20.40625 10.53125 -18.15625 C 10.53125 -15.90625 11.019531 -13.898438 12 -12.140625 C 12.988281 -10.378906 14.347656 -9.003906 16.078125 -8.015625 C 17.804688 -7.023438 19.742188 -6.53125 21.890625 -6.53125 Z M 21.890625 -6.53125 "/></g></g></g><g fill="#ebebeb" fill-opacity="1"><g transform="translate(194.736537, 70.833942)"><g><path d="M 37.609375 -36.3125 L 37.609375 0 L 30.703125 0 L 12.609375 -22.046875 L 12.609375 0 L 4.3125 0 L 4.3125 -36.3125 L 11.25 -36.3125 L 29.3125 -14.265625 L 29.3125 -36.3125 Z M 37.609375 -36.3125 "/></g></g></g><g fill="#ebebeb" fill-opacity="1"><g transform="translate(236.654255, 70.833942)"><g><path d="M 28.21875 -7.78125 L 11.359375 -7.78125 L 8.140625 0 L -0.46875 0 L 15.71875 -36.3125 L 24.015625 -36.3125 L 40.25 0 L 31.4375 0 Z M 25.578125 -14.15625 L 19.8125 -28.0625 L 14.0625 -14.15625 Z M 25.578125 -14.15625 "/></g></g></g><g fill="#ebebeb" fill-opacity="1"><g transform="translate(276.393073, 70.833942)"><g><path d="M 11.828125 -29.46875 L 0.203125 -29.46875 L 0.203125 -36.3125 L 31.84375 -36.3125 L 31.84375 -29.46875 L 20.234375 -29.46875 L 20.234375 0 L 11.828125 0 Z M 11.828125 -29.46875 "/></g></g></g><g fill="#ebebeb" fill-opacity="1"><g transform="translate(308.453893, 70.833942)"><g><path d="M 32.421875 -6.75 L 32.421875 0 L 4.3125 0 L 4.3125 -36.3125 L 31.75 -36.3125 L 31.75 -29.5625 L 12.65625 -29.5625 L 12.65625 -21.6875 L 29.515625 -21.6875 L 29.515625 -15.140625 L 12.65625 -15.140625 L 12.65625 -6.75 Z M 32.421875 -6.75 "/></g></g></g></svg>