<svg xmlns="http://www.w3.org/2000/svg" xmlns:xlink="http://www.w3.org/1999/xlink" width="600" zoomAndPan="magnify" viewBox="0 0 450 299.999988" height="400" preserveAspectRatio="xMidYMid meet" version="1.0"><defs><g/><clipPath id="f2962e3422"><path d="M 0 156.824219 L 450 156.824219 L 450 300 L 0 300 Z M 0 156.824219 " clip-rule="nonzero"/></clipPath></defs><rect x="-45" width="540" fill="#ffffff" y="-29.999999" height="359.999986" fill-opacity="1"/><rect x="-45" width="540" fill="#3066bd" y="-29.999999" height="359.999986" fill-opacity="1"/><g clip-path="url(#f2962e3422)"><path fill="#f5f7f6" d="M 453.371094 266.351562 L 453.371094 252.757812 L 453.597656 252.757812 L 453.597656 250.585938 L 453.820312 250.199219 L 453.820312 248.648438 L 445.503906 244.582031 L 445.503906 240.78125 L 445.847656 240.375 L 445.847656 239.429688 L 443.875 239.429688 L 443.875 236.574219 L 444.167969 236.574219 L 444.167969 236.289062 L 443.359375 235.960938 L 443.359375 232.691406 L 443.554688 232.691406 L 443.554688 232.371094 L 441.960938 231.59375 C 441.960938 231.59375 440.96875 213.5625 440.816406 210.449219 C 440.816406 210.402344 440.824219 210.28125 440.882812 210.253906 C 440.953125 210.21875 440.980469 210.019531 440.796875 210 C 440.796875 209.539062 440.585938 209.460938 440.585938 209.460938 C 440.585938 209.460938 440.375 209.539062 440.375 210 C 440.199219 210.019531 440.222656 210.21875 440.289062 210.253906 C 440.355469 210.28125 440.355469 210.433594 440.355469 210.464844 L 440.355469 210.46875 C 440.203125 213.636719 439.214844 231.59375 439.214844 231.59375 L 437.621094 232.371094 L 437.621094 232.691406 L 437.8125 232.691406 L 437.8125 235.960938 L 437.007812 236.289062 L 437.007812 236.574219 L 437.296875 236.574219 L 437.296875 239.429688 L 435.324219 239.429688 L 435.324219 240.375 L 435.671875 240.78125 L 435.671875 244.582031 L 427.347656 248.648438 L 427.347656 250.199219 L 427.578125 250.585938 L 427.578125 252.757812 L 427.804688 252.757812 L 427.804688 261.328125 L 419.699219 261.328125 L 421.125 223.625 L 419.96875 223.625 L 419.96875 209.792969 C 419.96875 209.792969 400.695312 208.941406 396.542969 214.855469 L 396.542969 216.6875 L 395.355469 216.6875 L 395.355469 222.5625 L 391.011719 222.5625 C 391.011719 222.5625 387.78125 231.6875 387.78125 253.96875 L 387.78125 257.238281 L 381.324219 257.238281 L 381.324219 241.003906 L 380.421875 241.003906 C 380.355469 223.4375 378.128906 212.011719 376.746094 206.585938 C 376.117188 204.125 375.664062 202.898438 375.664062 202.898438 C 368.304688 198.390625 344.394531 197.484375 344.394531 197.484375 L 344.394531 255.671875 L 335.832031 255.671875 L 335.832031 255.304688 L 335.3125 254.347656 L 335.3125 225.378906 L 335.832031 224.773438 L 335.832031 224.074219 L 333.945312 224.074219 L 333.945312 219.238281 L 329.960938 219.238281 L 329.960938 217.898438 L 322.65625 217.898438 L 322.65625 215 L 323.539062 213.648438 C 323.539062 213.648438 319.277344 208.785156 311.691406 208.785156 C 304.109375 208.785156 299.84375 213.648438 299.84375 213.648438 L 300.734375 215 L 300.734375 217.898438 L 293.425781 217.898438 L 293.425781 219.238281 L 289.4375 219.238281 L 289.4375 224.074219 L 287.558594 224.074219 L 287.558594 224.773438 L 288.070312 225.378906 L 288.070312 247.964844 L 279.757812 247.964844 L 279.757812 172.734375 C 279.757812 172.734375 279.757812 172.734375 279.757812 172.726562 C 279.757812 172.71875 279.757812 172.710938 279.753906 172.707031 C 279.753906 172.699219 279.75 172.691406 279.75 172.683594 C 279.75 172.675781 279.742188 172.671875 279.738281 172.667969 C 279.734375 172.660156 279.726562 172.652344 279.722656 172.644531 C 279.71875 172.644531 279.71875 172.640625 279.71875 172.640625 L 261.402344 156.941406 C 261.402344 156.9375 261.394531 156.9375 261.390625 156.9375 C 261.382812 156.933594 261.375 156.925781 261.371094 156.921875 L 261.351562 156.921875 C 261.339844 156.917969 261.328125 156.917969 261.324219 156.917969 C 261.320312 156.917969 261.308594 156.917969 261.304688 156.921875 L 261.277344 156.921875 C 261.273438 156.925781 261.269531 156.933594 261.257812 156.9375 C 261.257812 156.9375 261.253906 156.9375 261.25 156.941406 L 253.515625 163.566406 C 253.515625 163.574219 253.515625 163.574219 253.515625 163.574219 L 242.933594 172.640625 L 242.933594 172.644531 C 242.921875 172.652344 242.917969 172.660156 242.917969 172.667969 C 242.910156 172.671875 242.90625 172.675781 242.902344 172.683594 C 242.902344 172.691406 242.894531 172.699219 242.894531 172.707031 C 242.894531 172.710938 242.890625 172.71875 242.890625 172.726562 C 242.890625 172.734375 242.890625 172.734375 242.890625 172.734375 L 242.890625 253.695312 L 235.398438 253.695312 L 235.398438 202.226562 C 235.398438 201.445312 228.039062 199.648438 228.039062 199.648438 L 227.695312 199.621094 L 226.800781 199.648438 C 226.800781 199.648438 206.707031 200.128906 206.707031 201.65625 L 206.707031 237.632812 L 199.214844 237.632812 L 199.214844 191.886719 C 188.183594 187.058594 151.8125 188.117188 151.8125 188.117188 L 151.8125 253.917969 L 145.515625 253.917969 L 145.515625 218.453125 C 145.652344 218.375 145.785156 218.269531 145.914062 218.125 C 146.386719 217.613281 146.621094 216.832031 146.621094 215.789062 C 146.621094 212.167969 141.097656 212.128906 140.859375 212.128906 L 133.550781 212.128906 C 133.414062 212.128906 133.292969 212.199219 133.214844 212.328125 C 133.136719 212.460938 133.117188 212.621094 133.152344 212.777344 L 134.015625 216.148438 L 126.972656 216.148438 L 126.972656 222.90625 L 114.304688 222.90625 L 114.304688 247.613281 L 107.570312 247.613281 L 107.570312 190.175781 L 84.933594 190.175781 L 84.933594 191.53125 L 72.015625 191.53125 L 72.015625 219.945312 L 70.925781 219.945312 L 70.925781 215.757812 L 39.871094 215.757812 L 39.871094 219.945312 L 38.785156 219.945312 L 38.785156 252.386719 L 32.367188 252.386719 L 32.367188 209.878906 C 32.453125 209.878906 32.523438 209.796875 32.523438 209.691406 L 32.464844 190.296875 C 32.464844 190.230469 32.421875 190.175781 32.367188 190.175781 C 32.316406 190.175781 32.269531 190.226562 32.269531 190.296875 L 32.242188 200.433594 L 30.984375 199.414062 L 30.984375 207.050781 L 30.3125 207.050781 L 30.3125 202.746094 L 25.832031 206.957031 L 25.832031 204.601562 L 16.832031 213.113281 L 16.832031 219.945312 L 0.03125 219.945312 L 0.03125 221.542969 L -4.078125 221.542969 L -4.078125 299.894531 L 454.082031 299.894531 L 454.082031 266.351562 Z M 453.371094 266.351562 " fill-opacity="1" fill-rule="nonzero"/></g><g fill="#f5f7f6" fill-opacity="1"><g transform="translate(19.226989, 79.260814)"><g><path d="M 30.96875 -18.875 C 33.039062 -18.21875 34.664062 -17.117188 35.84375 -15.578125 C 37.019531 -14.046875 37.609375 -12.15625 37.609375 -9.90625 C 37.609375 -6.726562 36.367188 -4.28125 33.890625 -2.5625 C 31.421875 -0.851562 27.816406 0 23.078125 0 L 4.3125 0 L 4.3125 -36.3125 L 22.046875 -36.3125 C 26.472656 -36.3125 29.867188 -35.460938 32.234375 -33.765625 C 34.609375 -32.078125 35.796875 -29.78125 35.796875 -26.875 C 35.796875 -25.101562 35.367188 -23.523438 34.515625 -22.140625 C 33.671875 -20.765625 32.488281 -19.675781 30.96875 -18.875 Z M 12.65625 -29.984375 L 12.65625 -21.421875 L 21.015625 -21.421875 C 23.085938 -21.421875 24.660156 -21.785156 25.734375 -22.515625 C 26.804688 -23.242188 27.34375 -24.316406 27.34375 -25.734375 C 27.34375 -27.148438 26.804688 -28.210938 25.734375 -28.921875 C 24.660156 -29.628906 23.085938 -29.984375 21.015625 -29.984375 Z M 22.46875 -6.328125 C 24.675781 -6.328125 26.34375 -6.6875 27.46875 -7.40625 C 28.59375 -8.132812 29.15625 -9.265625 29.15625 -10.796875 C 29.15625 -13.796875 26.925781 -15.296875 22.46875 -15.296875 L 12.65625 -15.296875 L 12.65625 -6.328125 Z M 22.46875 -6.328125 "/></g></g></g><g fill="#f5f7f6" fill-opacity="1"><g transform="translate(58.909597, 79.260814)"><g><path d="M 32.421875 -6.75 L 32.421875 0 L 4.3125 0 L 4.3125 -36.3125 L 31.75 -36.3125 L 31.75 -29.5625 L 12.65625 -29.5625 L 12.65625 -21.6875 L 29.515625 -21.6875 L 29.515625 -15.140625 L 12.65625 -15.140625 L 12.65625 -6.75 Z M 32.421875 -6.75 "/></g></g></g><g fill="#f5f7f6" fill-opacity="1"><g transform="translate(93.71618, 79.260814)"><g><path d="M 37.609375 -36.3125 L 37.609375 0 L 30.703125 0 L 12.609375 -22.046875 L 12.609375 0 L 4.3125 0 L 4.3125 -36.3125 L 11.25 -36.3125 L 29.3125 -14.265625 L 29.3125 -36.3125 Z M 37.609375 -36.3125 "/></g></g></g><g fill="#f5f7f6" fill-opacity="1"><g transform="translate(135.62933, 79.260814)"><g><path d="M 11.828125 -29.46875 L 0.203125 -29.46875 L 0.203125 -36.3125 L 31.84375 -36.3125 L 31.84375 -29.46875 L 20.234375 -29.46875 L 20.234375 0 L 11.828125 0 Z M 11.828125 -29.46875 "/></g></g></g><g fill="#f5f7f6" fill-opacity="1"><g transform="translate(167.686666, 79.260814)"><g><path d="M 4.3125 -36.3125 L 12.703125 -36.3125 L 12.703125 -6.84375 L 30.921875 -6.84375 L 30.921875 0 L 4.3125 0 Z M 4.3125 -36.3125 "/></g></g></g><g fill="#f5f7f6" fill-opacity="1"><g transform="translate(199.017769, 79.260814)"><g><path d="M 32.421875 -6.75 L 32.421875 0 L 4.3125 0 L 4.3125 -36.3125 L 31.75 -36.3125 L 31.75 -29.5625 L 12.65625 -29.5625 L 12.65625 -21.6875 L 29.515625 -21.6875 L 29.515625 -15.140625 L 12.65625 -15.140625 L 12.65625 -6.75 Z M 32.421875 -6.75 "/></g></g></g><g fill="#f5f7f6" fill-opacity="1"><g transform="translate(233.824352, 79.260814)"><g><path d="M 21.734375 -12.859375 L 21.734375 0 L 13.328125 0 L 13.328125 -12.96875 L -0.71875 -36.3125 L 8.203125 -36.3125 L 17.890625 -20.171875 L 27.59375 -36.3125 L 35.84375 -36.3125 Z M 21.734375 -12.859375 "/></g></g></g><g fill="#f5f7f6" fill-opacity="1"><g transform="translate(268.890307, 79.260814)"><g><path d="M 6.84375 -38.90625 C 8.300781 -38.90625 9.492188 -38.445312 10.421875 -37.53125 C 11.359375 -36.613281 11.828125 -35.410156 11.828125 -33.921875 C 11.828125 -33.234375 11.738281 -32.539062 11.5625 -31.84375 C 11.394531 -31.15625 11.035156 -30.117188 10.484375 -28.734375 L 7.46875 -21.265625 L 2.328125 -21.265625 L 4.5625 -29.46875 C 3.695312 -29.84375 3.019531 -30.410156 2.53125 -31.171875 C 2.050781 -31.929688 1.8125 -32.847656 1.8125 -33.921875 C 1.8125 -35.410156 2.285156 -36.613281 3.234375 -37.53125 C 4.191406 -38.445312 5.394531 -38.90625 6.84375 -38.90625 Z M 6.84375 -38.90625 "/></g></g></g><g fill="#f5f7f6" fill-opacity="1"><g transform="translate(282.480953, 79.260814)"><g><path d="M 16.234375 0.625 C 13.367188 0.625 10.59375 0.234375 7.90625 -0.546875 C 5.226562 -1.328125 3.078125 -2.335938 1.453125 -3.578125 L 4.3125 -9.90625 C 5.863281 -8.769531 7.710938 -7.851562 9.859375 -7.15625 C 12.003906 -6.46875 14.144531 -6.125 16.28125 -6.125 C 18.675781 -6.125 20.441406 -6.476562 21.578125 -7.1875 C 22.722656 -7.894531 23.296875 -8.835938 23.296875 -10.015625 C 23.296875 -10.878906 22.957031 -11.59375 22.28125 -12.15625 C 21.601562 -12.726562 20.738281 -13.1875 19.6875 -13.53125 C 18.632812 -13.882812 17.207031 -14.269531 15.40625 -14.6875 C 12.632812 -15.34375 10.367188 -16 8.609375 -16.65625 C 6.847656 -17.3125 5.332031 -18.363281 4.0625 -19.8125 C 2.800781 -21.269531 2.171875 -23.207031 2.171875 -25.625 C 2.171875 -27.738281 2.742188 -29.648438 3.890625 -31.359375 C 5.035156 -33.066406 6.753906 -34.421875 9.046875 -35.421875 C 11.347656 -36.429688 14.160156 -36.9375 17.484375 -36.9375 C 19.796875 -36.9375 22.054688 -36.660156 24.265625 -36.109375 C 26.484375 -35.554688 28.425781 -34.757812 30.09375 -33.71875 L 27.5 -27.34375 C 24.144531 -29.238281 20.789062 -30.1875 17.4375 -30.1875 C 15.082031 -30.1875 13.34375 -29.804688 12.21875 -29.046875 C 11.09375 -28.285156 10.53125 -27.285156 10.53125 -26.046875 C 10.53125 -24.796875 11.175781 -23.867188 12.46875 -23.265625 C 13.769531 -22.660156 15.753906 -22.0625 18.421875 -21.46875 C 21.179688 -20.8125 23.441406 -20.15625 25.203125 -19.5 C 26.972656 -18.84375 28.488281 -17.804688 29.75 -16.390625 C 31.007812 -14.972656 31.640625 -13.054688 31.640625 -10.640625 C 31.640625 -8.554688 31.0625 -6.660156 29.90625 -4.953125 C 28.75 -3.242188 27.007812 -1.882812 24.6875 -0.875 C 22.375 0.125 19.554688 0.625 16.234375 0.625 Z M 16.234375 0.625 "/></g></g></g><g fill="#f5f7f6" fill-opacity="1"><g transform="translate(315.575737, 79.260814)"><g/></g></g><g fill="#f5f7f6" fill-opacity="1"><g transform="translate(330.255713, 79.260814)"><g><path d="M 30.96875 -18.875 C 33.039062 -18.21875 34.664062 -17.117188 35.84375 -15.578125 C 37.019531 -14.046875 37.609375 -12.15625 37.609375 -9.90625 C 37.609375 -6.726562 36.367188 -4.28125 33.890625 -2.5625 C 31.421875 -0.851562 27.816406 0 23.078125 0 L 4.3125 0 L 4.3125 -36.3125 L 22.046875 -36.3125 C 26.472656 -36.3125 29.867188 -35.460938 32.234375 -33.765625 C 34.609375 -32.078125 35.796875 -29.78125 35.796875 -26.875 C 35.796875 -25.101562 35.367188 -23.523438 34.515625 -22.140625 C 33.671875 -20.765625 32.488281 -19.675781 30.96875 -18.875 Z M 12.65625 -29.984375 L 12.65625 -21.421875 L 21.015625 -21.421875 C 23.085938 -21.421875 24.660156 -21.785156 25.734375 -22.515625 C 26.804688 -23.242188 27.34375 -24.316406 27.34375 -25.734375 C 27.34375 -27.148438 26.804688 -28.210938 25.734375 -28.921875 C 24.660156 -29.628906 23.085938 -29.984375 21.015625 -29.984375 Z M 22.46875 -6.328125 C 24.675781 -6.328125 26.34375 -6.6875 27.46875 -7.40625 C 28.59375 -8.132812 29.15625 -9.265625 29.15625 -10.796875 C 29.15625 -13.796875 26.925781 -15.296875 22.46875 -15.296875 L 12.65625 -15.296875 L 12.65625 -6.328125 Z M 22.46875 -6.328125 "/></g></g></g><g fill="#f5f7f6" fill-opacity="1"><g transform="translate(369.938303, 79.260814)"><g><path d="M 4.3125 -36.3125 L 12.703125 -36.3125 L 12.703125 0 L 4.3125 0 Z M 4.3125 -36.3125 "/></g></g></g><g fill="#f5f7f6" fill-opacity="1"><g transform="translate(386.952528, 79.260814)"><g><path d="M 21.890625 0.625 C 18.117188 0.625 14.71875 -0.1875 11.6875 -1.8125 C 8.664062 -3.4375 6.296875 -5.675781 4.578125 -8.53125 C 2.867188 -11.382812 2.015625 -14.59375 2.015625 -18.15625 C 2.015625 -21.71875 2.867188 -24.925781 4.578125 -27.78125 C 6.296875 -30.632812 8.664062 -32.875 11.6875 -34.5 C 14.71875 -36.125 18.117188 -36.9375 21.890625 -36.9375 C 25.660156 -36.9375 29.050781 -36.125 32.0625 -34.5 C 35.070312 -32.875 37.441406 -30.632812 39.171875 -27.78125 C 40.898438 -24.925781 41.765625 -21.71875 41.765625 -18.15625 C 41.765625 -14.59375 40.898438 -11.382812 39.171875 -8.53125 C 37.441406 -5.675781 35.070312 -3.4375 32.0625 -1.8125 C 29.050781 -0.1875 25.660156 0.625 21.890625 0.625 Z M 21.890625 -6.53125 C 24.035156 -6.53125 25.972656 -7.023438 27.703125 -8.015625 C 29.429688 -9.003906 30.785156 -10.378906 31.765625 -12.140625 C 32.753906 -13.898438 33.25 -15.90625 33.25 -18.15625 C 33.25 -20.40625 32.753906 -22.410156 31.765625 -24.171875 C 30.785156 -25.929688 29.429688 -27.304688 27.703125 -28.296875 C 25.972656 -29.285156 24.035156 -29.78125 21.890625 -29.78125 C 19.742188 -29.78125 17.804688 -29.285156 16.078125 -28.296875 C 14.347656 -27.304688 12.988281 -25.929688 12 -24.171875 C 11.019531 -22.410156 10.53125 -20.40625 10.53125 -18.15625 C 10.53125 -15.90625 11.019531 -13.898438 12 -12.140625 C 12.988281 -10.378906 14.347656 -9.003906 16.078125 -8.015625 C 17.804688 -7.023438 19.742188 -6.53125 21.890625 -6.53125 Z M 21.890625 -6.53125 "/></g></g></g><path stroke-linecap="butt" transform="matrix(0.749996, -0.00250801, 0.00250801, 0.749996, 0.714981, 0)" fill="none" stroke-linejoin="miter" d="M -0.00166223 2.000006 L 598.08505 2.000016 " stroke="#ffffff" stroke-width="4" stroke-opacity="1" stroke-miterlimit="4"/></svg>
