<svg xmlns="http://www.w3.org/2000/svg" xmlns:xlink="http://www.w3.org/1999/xlink" width="600" zoomAndPan="magnify" viewBox="0 0 450 299.999988" height="400" preserveAspectRatio="xMidYMid meet" version="1.0"><defs><g/><clipPath id="bdfa81c899"><path d="M 145.460938 105 L 304.460938 105 L 304.460938 285 L 145.460938 285 Z M 145.460938 105 " clip-rule="nonzero"/></clipPath></defs><rect x="-45" width="540" fill="#ffffff" y="-29.999999" height="359.999986" fill-opacity="1"/><rect x="-45" width="540" fill="#3066bd" y="-29.999999" height="359.999986" fill-opacity="1"/><g clip-path="url(#bdfa81c899)"><path fill="#ebebeb" d="M 304.460938 182.449219 C 304.460938 182.414062 304.460938 182.414062 304.460938 182.449219 C 304.460938 182.34375 304.460938 182.269531 304.421875 182.234375 C 304.421875 182.234375 304.421875 182.199219 304.421875 182.199219 C 304.421875 182.128906 304.386719 182.054688 304.386719 181.984375 C 304.386719 181.984375 304.386719 181.984375 304.386719 181.949219 C 304.351562 181.695312 304.28125 181.480469 304.171875 181.265625 C 304.101562 181.121094 304.027344 180.976562 303.957031 180.835938 L 285.105469 147.441406 C 284.421875 146.257812 283.167969 145.539062 281.800781 145.539062 L 273.757812 145.539062 L 277.207031 139.578125 C 277.707031 138.714844 277.851562 137.675781 277.566406 136.707031 C 277.3125 135.734375 276.667969 134.910156 275.804688 134.40625 L 226.863281 106.042969 C 225.070312 105 222.734375 105.609375 221.695312 107.40625 L 199.71875 145.464844 L 168.085938 145.464844 C 166.722656 145.464844 165.464844 146.183594 164.78125 147.371094 L 145.929688 180.761719 C 145.859375 180.90625 145.789062 181.050781 145.714844 181.195312 C 145.679688 181.265625 145.644531 181.335938 145.644531 181.410156 C 145.609375 181.554688 145.570312 181.734375 145.535156 181.875 C 145.535156 181.875 145.535156 181.910156 145.535156 181.910156 C 145.535156 181.984375 145.5 182.054688 145.5 182.089844 C 145.5 182.089844 145.5 182.128906 145.5 182.128906 C 145.5 182.199219 145.5 182.269531 145.5 182.308594 C 145.5 182.308594 145.5 182.34375 145.5 182.34375 C 145.5 182.414062 145.5 182.488281 145.5 182.558594 L 145.5 205 C 145.5 207.082031 147.1875 208.769531 149.269531 208.769531 L 153.6875 208.769531 L 153.6875 281.230469 C 153.6875 283.3125 155.375 285 157.457031 285 L 292.539062 285 C 294.621094 285 296.308594 283.3125 296.308594 281.230469 L 296.308594 208.84375 L 300.726562 208.84375 C 302.808594 208.84375 304.496094 207.15625 304.496094 205.070312 L 304.496094 182.628906 C 304.496094 182.558594 304.496094 182.523438 304.460938 182.449219 Z M 226.363281 114.480469 L 268.839844 139.003906 L 255.445312 162.199219 L 198.820312 162.199219 Z M 170.277344 153.007812 L 195.375 153.007812 L 190.097656 162.164062 L 181.300781 162.164062 C 179.214844 162.164062 177.527344 163.851562 177.527344 165.933594 C 177.527344 168.015625 179.214844 169.703125 181.300781 169.703125 L 268.589844 169.703125 C 270.671875 169.703125 272.359375 168.015625 272.359375 165.933594 C 272.359375 163.851562 270.671875 162.164062 268.589844 162.164062 L 264.171875 162.164062 L 269.449219 153.007812 L 279.648438 153.007812 L 294.261719 178.859375 L 155.660156 178.859375 Z M 288.730469 277.53125 L 161.191406 277.53125 L 161.191406 208.84375 L 288.730469 208.84375 Z M 296.917969 201.300781 L 152.96875 201.300781 L 152.96875 186.4375 L 296.917969 186.4375 Z M 296.917969 201.300781 " fill-opacity="1" fill-rule="nonzero"/></g><path fill="#ebebeb" d="M 181.40625 242.488281 C 182.269531 244.710938 183.203125 246.9375 184.171875 249.238281 C 185.140625 251.5 186.148438 253.6875 187.117188 255.808594 L 192.503906 255.808594 C 193.507812 253.6875 194.476562 251.535156 195.445312 249.238281 C 196.414062 246.976562 197.3125 244.710938 198.210938 242.488281 C 199.074219 240.261719 199.898438 238.140625 200.617188 236.09375 C 201.335938 234.085938 201.980469 232.253906 202.554688 230.636719 L 196.523438 230.636719 C 196.058594 232.109375 195.519531 233.652344 194.945312 235.339844 C 194.371094 237.027344 193.792969 238.679688 193.183594 240.367188 C 192.574219 242.019531 192 243.636719 191.460938 245.144531 C 190.886719 246.6875 190.382812 247.980469 189.917969 249.09375 C 189.414062 247.980469 188.875 246.652344 188.335938 245.144531 C 187.796875 243.601562 187.222656 242.019531 186.613281 240.367188 C 186.003906 238.714844 185.429688 237.027344 184.855469 235.339844 C 184.28125 233.652344 183.742188 232.109375 183.273438 230.636719 L 177.097656 230.636719 C 177.636719 232.21875 178.28125 234.046875 179 236.09375 C 179.71875 238.140625 180.546875 240.261719 181.40625 242.488281 Z M 181.40625 242.488281 " fill-opacity="1" fill-rule="nonzero"/><path fill="#ebebeb" d="M 207.871094 252.613281 C 208.949219 253.652344 210.238281 254.445312 211.675781 254.980469 C 213.148438 255.519531 214.691406 255.773438 216.34375 255.773438 C 218.03125 255.773438 219.613281 255.519531 221.082031 254.980469 C 222.554688 254.445312 223.8125 253.652344 224.890625 252.613281 C 225.96875 251.570312 226.792969 250.242188 227.402344 248.699219 C 228.015625 247.117188 228.335938 245.324219 228.335938 243.242188 C 228.335938 241.195312 228.015625 239.363281 227.402344 237.78125 C 226.792969 236.203125 225.929688 234.910156 224.816406 233.832031 C 223.742188 232.753906 222.449219 231.964844 221.011719 231.425781 C 219.539062 230.886719 217.996094 230.636719 216.34375 230.636719 C 214.726562 230.636719 213.21875 230.886719 211.785156 231.425781 C 210.347656 231.964844 209.054688 232.753906 207.976562 233.832031 C 206.863281 234.910156 206.003906 236.203125 205.355469 237.78125 C 204.710938 239.363281 204.386719 241.15625 204.386719 243.242188 C 204.386719 245.289062 204.710938 247.117188 205.320312 248.699219 C 205.894531 250.242188 206.757812 251.535156 207.871094 252.613281 Z M 210.382812 240.042969 C 210.671875 239.074219 211.101562 238.25 211.640625 237.566406 C 212.179688 236.886719 212.859375 236.347656 213.652344 235.953125 C 214.441406 235.554688 215.339844 235.378906 216.378906 235.378906 C 217.386719 235.378906 218.28125 235.554688 219.074219 235.914062 C 219.863281 236.273438 220.546875 236.8125 221.082031 237.496094 C 221.621094 238.175781 222.054688 239.003906 222.339844 239.972656 C 222.628906 240.941406 222.769531 242.019531 222.769531 243.203125 C 222.769531 244.390625 222.628906 245.464844 222.339844 246.398438 C 222.054688 247.332031 221.621094 248.160156 221.082031 248.84375 C 220.546875 249.523438 219.863281 250.0625 219.074219 250.421875 C 218.28125 250.78125 217.386719 250.960938 216.378906 250.960938 C 215.375 250.960938 214.441406 250.78125 213.652344 250.421875 C 212.859375 250.0625 212.179688 249.523438 211.640625 248.84375 C 211.101562 248.160156 210.671875 247.332031 210.382812 246.398438 C 210.097656 245.464844 209.953125 244.390625 209.953125 243.203125 C 209.953125 242.089844 210.097656 241.015625 210.382812 240.042969 Z M 210.382812 240.042969 " fill-opacity="1" fill-rule="nonzero"/><path fill="#ebebeb" d="M 238.140625 255.773438 L 243.8125 255.773438 L 243.8125 235.484375 L 251.390625 235.484375 L 251.390625 230.636719 L 230.5625 230.636719 L 230.5625 235.484375 L 238.140625 235.484375 Z M 238.140625 255.773438 " fill-opacity="1" fill-rule="nonzero"/><path fill="#ebebeb" d="M 272.824219 251.03125 L 260.652344 251.03125 L 260.652344 245.609375 L 272.824219 245.609375 L 272.824219 240.835938 L 260.652344 240.835938 L 260.652344 235.414062 L 272.824219 235.414062 L 272.824219 230.636719 L 255.015625 230.636719 L 255.015625 255.773438 L 272.824219 255.773438 Z M 272.824219 251.03125 " fill-opacity="1" fill-rule="nonzero"/><g fill="#f5f7f6" fill-opacity="1"><g transform="translate(56.783961, 63.31832)"><g><path d="M 39.21875 -36.3125 L 23.5 0 L 15.203125 0 L -0.46875 -36.3125 L 8.609375 -36.3125 L 19.65625 -10.375 L 30.859375 -36.3125 Z M 39.21875 -36.3125 "/></g></g></g><g fill="#f5f7f6" fill-opacity="1"><g transform="translate(95.481003, 63.31832)"><g><path d="M 21.890625 0.625 C 18.117188 0.625 14.71875 -0.1875 11.6875 -1.8125 C 8.664062 -3.4375 6.296875 -5.675781 4.578125 -8.53125 C 2.867188 -11.382812 2.015625 -14.59375 2.015625 -18.15625 C 2.015625 -21.71875 2.867188 -24.925781 4.578125 -27.78125 C 6.296875 -30.632812 8.664062 -32.875 11.6875 -34.5 C 14.71875 -36.125 18.117188 -36.9375 21.890625 -36.9375 C 25.660156 -36.9375 29.050781 -36.125 32.0625 -34.5 C 35.070312 -32.875 37.441406 -30.632812 39.171875 -27.78125 C 40.898438 -24.925781 41.765625 -21.71875 41.765625 -18.15625 C 41.765625 -14.59375 40.898438 -11.382812 39.171875 -8.53125 C 37.441406 -5.675781 35.070312 -3.4375 32.0625 -1.8125 C 29.050781 -0.1875 25.660156 0.625 21.890625 0.625 Z M 21.890625 -6.53125 C 24.035156 -6.53125 25.972656 -7.023438 27.703125 -8.015625 C 29.429688 -9.003906 30.785156 -10.378906 31.765625 -12.140625 C 32.753906 -13.898438 33.25 -15.90625 33.25 -18.15625 C 33.25 -20.40625 32.753906 -22.410156 31.765625 -24.171875 C 30.785156 -25.929688 29.429688 -27.304688 27.703125 -28.296875 C 25.972656 -29.285156 24.035156 -29.78125 21.890625 -29.78125 C 19.742188 -29.78125 17.804688 -29.285156 16.078125 -28.296875 C 14.347656 -27.304688 12.988281 -25.929688 12 -24.171875 C 11.019531 -22.410156 10.53125 -20.40625 10.53125 -18.15625 C 10.53125 -15.90625 11.019531 -13.898438 12 -12.140625 C 12.988281 -10.378906 14.347656 -9.003906 16.078125 -8.015625 C 17.804688 -7.023438 19.742188 -6.53125 21.890625 -6.53125 Z M 21.890625 -6.53125 "/></g></g></g><g fill="#f5f7f6" fill-opacity="1"><g transform="translate(139.26156, 63.31832)"><g><path d="M 4.3125 -36.3125 L 12.703125 -36.3125 L 12.703125 -6.84375 L 30.921875 -6.84375 L 30.921875 0 L 4.3125 0 Z M 4.3125 -36.3125 "/></g></g></g><g fill="#f5f7f6" fill-opacity="1"><g transform="translate(170.592664, 63.31832)"><g><path d="M 20.4375 0.625 C 15.25 0.625 11.210938 -0.804688 8.328125 -3.671875 C 5.441406 -6.546875 4 -10.648438 4 -15.984375 L 4 -36.3125 L 12.390625 -36.3125 L 12.390625 -16.28125 C 12.390625 -9.78125 15.085938 -6.53125 20.484375 -6.53125 C 23.117188 -6.53125 25.125 -7.316406 26.5 -8.890625 C 27.882812 -10.460938 28.578125 -12.925781 28.578125 -16.28125 L 28.578125 -36.3125 L 36.890625 -36.3125 L 36.890625 -15.984375 C 36.890625 -10.648438 35.441406 -6.546875 32.546875 -3.671875 C 29.660156 -0.804688 25.625 0.625 20.4375 0.625 Z M 20.4375 0.625 "/></g></g></g><g fill="#f5f7f6" fill-opacity="1"><g transform="translate(211.468347, 63.31832)"><g><path d="M 37.609375 -36.3125 L 37.609375 0 L 30.703125 0 L 12.609375 -22.046875 L 12.609375 0 L 4.3125 0 L 4.3125 -36.3125 L 11.25 -36.3125 L 29.3125 -14.265625 L 29.3125 -36.3125 Z M 37.609375 -36.3125 "/></g></g></g><g fill="#f5f7f6" fill-opacity="1"><g transform="translate(253.381497, 63.31832)"><g><path d="M 11.828125 -29.46875 L 0.203125 -29.46875 L 0.203125 -36.3125 L 31.84375 -36.3125 L 31.84375 -29.46875 L 20.234375 -29.46875 L 20.234375 0 L 11.828125 0 Z M 11.828125 -29.46875 "/></g></g></g><g fill="#f5f7f6" fill-opacity="1"><g transform="translate(285.438832, 63.31832)"><g><path d="M 32.421875 -6.75 L 32.421875 0 L 4.3125 0 L 4.3125 -36.3125 L 31.75 -36.3125 L 31.75 -29.5625 L 12.65625 -29.5625 L 12.65625 -21.6875 L 29.515625 -21.6875 L 29.515625 -15.140625 L 12.65625 -15.140625 L 12.65625 -6.75 Z M 32.421875 -6.75 "/></g></g></g><g fill="#f5f7f6" fill-opacity="1"><g transform="translate(320.245415, 63.31832)"><g><path d="M 32.421875 -6.75 L 32.421875 0 L 4.3125 0 L 4.3125 -36.3125 L 31.75 -36.3125 L 31.75 -29.5625 L 12.65625 -29.5625 L 12.65625 -21.6875 L 29.515625 -21.6875 L 29.515625 -15.140625 L 12.65625 -15.140625 L 12.65625 -6.75 Z M 32.421875 -6.75 "/></g></g></g><g fill="#f5f7f6" fill-opacity="1"><g transform="translate(355.051998, 63.31832)"><g><path d="M 27.4375 0 L 20.4375 -10.109375 L 12.703125 -10.109375 L 12.703125 0 L 4.3125 0 L 4.3125 -36.3125 L 20.03125 -36.3125 C 23.238281 -36.3125 26.023438 -35.773438 28.390625 -34.703125 C 30.765625 -33.628906 32.59375 -32.109375 33.875 -30.140625 C 35.15625 -28.171875 35.796875 -25.835938 35.796875 -23.140625 C 35.796875 -20.441406 35.144531 -18.113281 33.84375 -16.15625 C 32.550781 -14.207031 30.710938 -12.710938 28.328125 -11.671875 L 36.46875 0 Z M 27.28125 -23.140625 C 27.28125 -25.179688 26.625 -26.742188 25.3125 -27.828125 C 24 -28.921875 22.082031 -29.46875 19.5625 -29.46875 L 12.703125 -29.46875 L 12.703125 -16.8125 L 19.5625 -16.8125 C 22.082031 -16.8125 24 -17.363281 25.3125 -18.46875 C 26.625 -19.570312 27.28125 -21.128906 27.28125 -23.140625 Z M 27.28125 -23.140625 "/></g></g></g></svg>